<svg xmlns="http://www.w3.org/2000/svg" xmlns:xlink="http://www.w3.org/1999/xlink" viewBox="0 0 148.35 225.43"><defs><style>.cls-1{fill:url(#Degradado_sin_nombre_140);}.cls-2{fill:url(#Degradado_sin_nombre_108);}.cls-3{fill:url(#Degradado_sin_nombre_113);}.cls-4{fill:url(#Degradado_sin_nombre_140-2);}.cls-5{fill:url(#Degradado_sin_nombre_135);}</style><linearGradient id="Degradado_sin_nombre_140" x1="32.45" y1="216.68" x2="2.33" y2="199.29" gradientUnits="userSpaceOnUse"><stop offset="0.15" stop-color="#555882"/><stop offset="0.77" stop-color="#3b7394"/><stop offset="0.98" stop-color="#317d9b"/></linearGradient><linearGradient id="Degradado_sin_nombre_108" x1="20.73" y1="133.12" x2="20.73" gradientUnits="userSpaceOnUse"><stop offset="0.38" stop-color="#0087aa"/><stop offset="0.53" stop-color="#0093b0"/><stop offset="0.8" stop-color="#00a5b8"/></linearGradient><linearGradient id="Degradado_sin_nombre_113" x1="94.06" y1="96.06" x2="0.88" y2="215.36" gradientUnits="userSpaceOnUse"><stop offset="0" stop-color="#00a5b8"/><stop offset="0.55" stop-color="#1e7c99"/><stop offset="1" stop-color="#345f83"/></linearGradient><linearGradient id="Degradado_sin_nombre_140-2" x1="7.66" y1="77.57" x2="113.77" y2="113.1" xlink:href="#Degradado_sin_nombre_140"/><linearGradient id="Degradado_sin_nombre_135" x1="17.11" y1="16.37" x2="105.11" y2="209.31" gradientUnits="userSpaceOnUse"><stop offset="0.04" stop-color="#7fd1db"/><stop offset="0.1" stop-color="#6fcbd7"/><stop offset="0.21" stop-color="#44bdcb"/><stop offset="0.36" stop-color="#00a5b8"/><stop offset="0.56" stop-color="#0d94ab"/><stop offset="0.94" stop-color="#2f6688"/><stop offset="0.99" stop-color="#345f83"/></linearGradient></defs><title>Recurso 2</title><g id="Capa_2" data-name="Capa 2"><g id="Capa_1-2" data-name="Capa 1"><circle class="cls-1" cx="17.39" cy="207.99" r="17.39"/><path class="cls-2" d="M41.45,133.12c-.63-.94-1.23-1.9-1.78-2.9a37.48,37.48,0,0,1-4.4-13.72,38.56,38.56,0,0,1,0-9.11s0-.06,0-.08V49.79h0V17.68a17.52,17.52,0,0,0-8.07-15,18.1,18.1,0,0,0-19.12,0A17.49,17.49,0,0,0,0,17.66v85.53C11,115.89,25.28,127.25,41.45,133.12Z"/><path class="cls-3" d="M110.94,113.45c-.24,6.06-3.41,14.46-9.66,23.87l0,0L73,177.2s-30.55-42.61-31.54-44.08C25.28,127.25,11,115.89,0,103.19v26.27q0,.48,0,1A18.26,18.26,0,0,0,3.39,140L57.7,216.61h0l.9,1.26A18.28,18.28,0,0,0,61.42,221l.4.34c.13.11.27.22.4.31l.55.41a18.22,18.22,0,0,0,9.37,3.32l.51,0H73l.8,0a18.22,18.22,0,0,0,9.37-3.32l.48-.35c.17-.12.32-.25.47-.37l0,0,.44-.38a17.56,17.56,0,0,0,2.75-3.08l.91-1.27h0l27-38C122.45,157.08,122.57,133.61,110.94,113.45Z"/><path class="cls-4" d="M74.17,39A74.71,74.71,0,0,0,35.28,49.79v57.52A38,38,0,0,1,111,112c0,.5,0,1,0,1.5,11.63,20.16,11.51,43.63,4.3,65.15l9.22-13h0L142.6,140l.15-.22h0a71.68,71.68,0,0,0,3.19-9.4h0a71.71,71.71,0,0,0,2.4-18.46C148.35,71.63,115.14,39,74.17,39Z"/><path class="cls-5" d="M76.83,62.27c-24.94,0-34.17,23.1-38.87,35C43.27,83.83,57.23,74,73,74a38,38,0,0,1,38,38v0a122.31,122.31,0,0,1-22.43,75.76l-5.21,7.34h0l-.91,1.27a17.56,17.56,0,0,1-2.75,3.08l-.44.38,0,0-.47.37-.48.35a18.22,18.22,0,0,1-9.37,3.32l-.8,0h-.39l-.51,0a18.22,18.22,0,0,1-9.37-3.32l-.55-.41a3.9,3.9,0,0,1-.4-.31l-.4-.34a18.28,18.28,0,0,1-2.81-3.14l-.9-1.26h0L17,144.69A56.13,56.13,0,0,1,6.68,111.94c.14-29.48.42-84.77.42-84.77a23.8,23.8,0,0,1,11-20.32,24.59,24.59,0,0,1,5.81-2.63,24.92,24.92,0,0,1,4.24-.88c-.3-.22-.61-.42-.93-.62a18.1,18.1,0,0,0-19.12,0A17.49,17.49,0,0,0,0,17.66v111.8q0,.48,0,1A18.26,18.26,0,0,0,3.39,140L57.7,216.61h0l.9,1.26A18.28,18.28,0,0,0,61.42,221l.4.34c.13.11.27.22.4.31l.55.41a18.22,18.22,0,0,0,9.37,3.32l.51,0H73l.8,0a18.22,18.22,0,0,0,9.37-3.32l.48-.35c.17-.12.32-.25.47-.37l0,0,.44-.38a17.56,17.56,0,0,0,2.75-3.08l.91-1.27h0l27-38,9.22-13h0l1.61-2.27C128.27,151.6,142.15,62.27,76.83,62.27Z"/></g></g></svg>